<svg xmlns="http://www.w3.org/2000/svg" viewBox="0 0 256 256">
  <path d="M0 0v256h256V0h-98.4c0 15-11.1 30-29.4 30A29.5 29.5 0 0198.5 0z" fill="#007acc"/>
  <path d="M100.35 117.107h2.025l52.506 115.818h-24.818l-5.402-13H78.063l-5.402 13H49.869zm15.87 83.065l-8.274-19.922q-1.35-3.377-2.532-6.753-1.182-3.377-2.195-6.585-1.182-3.714-2.195-7.26-1.181 4.222-2.194 7.43-1.013 3.207-2.195 6.921-1.182 3.546-2.364 6.247l-8.273 19.922zm79.306 34.273q-8.273 0-15.026-1.857-6.753-1.858-12.156-5.065-5.402-3.208-9.454-7.598-3.883-4.558-6.416-9.623l19.247-11.143q3.883 6.247 9.117 10.299 5.402 4.052 14.181 4.052 7.429 0 11.65-3.208 4.39-3.377 4.39-8.442 0-6.077-4.56-9.116-4.558-3.04-12.661-6.585l-5.91-2.532q-6.415-2.702-11.649-5.91-5.234-3.207-8.948-7.428-3.714-4.22-5.74-9.623-2.026-5.403-2.026-12.663 0-6.584 2.364-12.324 2.532-5.74 6.922-9.961 4.558-4.22 10.974-6.585 6.415-2.363 14.35-2.363 11.312 0 19.416 4.39 8.272 4.22 14.182 14.519l-18.403 11.818q-3.039-5.403-6.584-7.766-3.546-2.364-8.61-2.364-5.234 0-8.273 2.87-3.04 2.87-3.04 7.26 0 5.403 3.377 8.273 3.546 2.701 11.143 6.078l5.91 2.532q7.596 3.208 13.337 6.753 5.909 3.377 9.792 7.766 4.052 4.221 6.078 9.793 2.195 5.402 2.195 12.83 0 7.936-3.04 14.183-2.87 6.077-8.103 10.298-5.234 4.221-12.494 6.416-7.09 2.026-15.532 2.026z" fill="#fff"/>
</svg>
