<?xml version="1.0" encoding="UTF-8" standalone="no"?>
<svg
   width="4096"
   height="4096"
   viewBox="0 0 4096 4096"
   version="1.1"
   id="svg26"
   xmlns="http://www.w3.org/2000/svg"
   xmlns:svg="http://www.w3.org/2000/svg">
  <defs
     id="defs22">
    <linearGradient
       id="capGrad"
       x1="900"
       y1="520"
       x2="3190"
       y2="1120"
       gradientUnits="userSpaceOnUse">
      <stop
         offset="0"
         stop-color="#60B7FF"
         id="stop1" />
      <stop
         offset="0.55"
         stop-color="#6370FF"
         id="stop2" />
      <stop
         offset="1"
         stop-color="#7A49FF"
         id="stop3" />
    </linearGradient>
    <linearGradient
       id="stemGrad"
       x1="1764"
       y1="920"
       x2="2340"
       y2="2700"
       gradientUnits="userSpaceOnUse">
      <stop
         offset="0"
         stop-color="#3D44FF"
         id="stop4" />
      <stop
         offset="0.42"
         stop-color="#7621FF"
         id="stop5" />
      <stop
         offset="1"
         stop-color="#C900FF"
         id="stop6" />
    </linearGradient>
    <linearGradient
       id="textGrad"
       x1="550"
       y1="3100"
       x2="3540"
       y2="3100"
       gradientUnits="userSpaceOnUse">
      <stop
         offset="0"
         stop-color="#48E6FF"
         id="stop7" />
      <stop
         offset="0.32"
         stop-color="#4E7BFF"
         id="stop8" />
      <stop
         offset="0.62"
         stop-color="#7A38FF"
         id="stop9" />
      <stop
         offset="1"
         stop-color="#D90CFF"
         id="stop10" />
    </linearGradient>
    <linearGradient
       id="textGloss"
       x1="0"
       y1="2850"
       x2="0"
       y2="3400"
       gradientUnits="userSpaceOnUse">
      <stop
         offset="0"
         stop-color="#FFFFFF"
         stop-opacity="0.18"
         id="stop11" />
      <stop
         offset="0.35"
         stop-color="#FFFFFF"
         stop-opacity="0.08"
         id="stop12" />
      <stop
         offset="1"
         stop-color="#FFFFFF"
         stop-opacity="0"
         id="stop13" />
    </linearGradient>
    <linearGradient
       id="edgeGrad"
       x1="930"
       y1="520"
       x2="3190"
       y2="2700"
       gradientUnits="userSpaceOnUse">
      <stop
         offset="0"
         stop-color="#087DFF"
         stop-opacity="0.7"
         id="stop14" />
      <stop
         offset="0.55"
         stop-color="#351AFF"
         stop-opacity="0.55"
         id="stop15" />
      <stop
         offset="1"
         stop-color="#9E00FF"
         stop-opacity="0.7"
         id="stop16" />
    </linearGradient>
    <linearGradient
       id="glowGrad"
       x1="930"
       y1="520"
       x2="3190"
       y2="2700"
       gradientUnits="userSpaceOnUse">
      <stop
         offset="0"
         stop-color="#00B7FF"
         id="stop17" />
      <stop
         offset="0.55"
         stop-color="#675DFF"
         id="stop18" />
      <stop
         offset="1"
         stop-color="#D500FF"
         id="stop19" />
    </linearGradient>
    <filter
       id="iconGlow"
       x="680"
       y="330"
       width="2760"
       height="2650"
       filterUnits="userSpaceOnUse"
       color-interpolation-filters="sRGB">
      <feGaussianBlur
         in="SourceAlpha"
         stdDeviation="54"
         result="blur"
         id="feGaussianBlur19" />
      <feFlood
         flood-color="#745CFF"
         flood-opacity="0.32"
         result="glowColor"
         id="feFlood19" />
      <feComposite
         in="glowColor"
         in2="blur"
         operator="in"
         result="glow"
         id="feComposite19" />
      <feMerge
         id="feMerge20">
        <feMergeNode
           in="glow"
           id="feMergeNode19" />
        <feMergeNode
           in="SourceGraphic"
           id="feMergeNode20" />
      </feMerge>
    </filter>
    <filter
       id="textGlow"
       x="300"
       y="2740"
       width="3500"
       height="760"
       filterUnits="userSpaceOnUse"
       color-interpolation-filters="sRGB">
      <feGaussianBlur
         in="SourceAlpha"
         stdDeviation="28"
         result="blur"
         id="feGaussianBlur20" />
      <feFlood
         flood-color="#795CFF"
         flood-opacity="0.22"
         result="g"
         id="feFlood20" />
      <feComposite
         in="g"
         in2="blur"
         operator="in"
         result="glow"
         id="feComposite20" />
      <feMerge
         id="feMerge22">
        <feMergeNode
           in="glow"
           id="feMergeNode21" />
        <feMergeNode
           in="SourceGraphic"
           id="feMergeNode22" />
      </feMerge>
    </filter>
  </defs>
  <g
     filter="url(#iconGlow)"
     id="g24">
    <rect
       x="1764"
       y="920"
       width="576"
       height="1780"
       rx="180"
       ry="180"
       fill="url(#stemGrad)"
       stroke="url(#edgeGrad)"
       stroke-width="4"
       id="rect22" />
    <rect
       x="1764"
       y="920"
       width="576"
       height="325"
       fill="url(#stemGrad)"
       id="rect23" />
    <polygon
       points="1764,920 2340,920 2340,1740 1764,1120"
       fill="#2318D6"
       opacity="0.18"
       id="polygon23" />
    <path
       d="M 979.23 645.70 L 975.95 636.88 L 973.14 628.39 L 970.80 620.21 L 968.93 612.35 L 967.52 604.82 L 966.59 597.60 L 966.13 590.71 L 966.14 584.13 L 966.62 577.88 L 967.57 571.95 L 968.98 566.34 L 970.87 561.05 L 973.23 556.08 L 976.06 551.43 L 979.36 547.10 L 983.12 543.09 L 987.36 539.40 L 992.07 536.03 L 997.25 532.99 L 1002.90 530.26 L 1009.01 527.86 L 1015.60 525.77 L 1022.66 524.01 L 1030.19 522.57 L 1038.19 521.44 L 1046.65 520.64 L 1055.59 520.16 L 1065.00 520.00 L 2820.00 520.00 L 2829.53 520.16 L 2838.85 520.64 L 2847.94 521.44 L 2856.82 522.57 L 2865.48 524.01 L 2873.92 525.77 L 2882.14 527.86 L 2890.14 530.26 L 2897.92 532.99 L 2905.49 536.03 L 2912.83 539.40 L 2919.96 543.09 L 2926.87 547.10 L 2933.56 551.43 L 2940.03 556.08 L 2946.28 561.05 L 2952.31 566.34 L 2958.13 571.95 L 2963.72 577.88 L 2969.10 584.13 L 2974.26 590.71 L 2979.20 597.60 L 2983.92 604.82 L 2988.42 612.35 L 2992.70 620.21 L 2996.76 628.39 L 3000.61 636.88 L 3004.23 645.70 L 3140.77 994.30 L 3144.05 1003.12 L 3146.86 1011.61 L 3149.20 1019.79 L 3151.07 1027.65 L 3152.48 1035.18 L 3153.41 1042.40 L 3153.87 1049.29 L 3153.86 1055.87 L 3153.38 1062.12 L 3152.43 1068.05 L 3151.02 1073.66 L 3149.13 1078.95 L 3146.77 1083.92 L 3143.94 1088.57 L 3140.64 1092.90 L 3136.88 1096.91 L 3132.64 1100.60 L 3127.93 1103.97 L 3122.75 1107.01 L 3117.10 1109.74 L 3110.99 1112.14 L 3104.40 1114.23 L 3097.34 1115.99 L 3089.81 1117.43 L 3081.81 1118.56 L 3073.35 1119.36 L 3064.41 1119.84 L 3055.00 1120.00 L 1300.00 1120.00 L 1290.47 1119.84 L 1281.15 1119.36 L 1272.06 1118.56 L 1263.18 1117.43 L 1254.52 1115.99 L 1246.08 1114.23 L 1237.86 1112.14 L 1229.86 1109.74 L 1222.08 1107.01 L 1214.51 1103.97 L 1207.17 1100.60 L 1200.04 1096.91 L 1193.13 1092.90 L 1186.44 1088.57 L 1179.97 1083.92 L 1173.72 1078.95 L 1167.69 1073.66 L 1161.87 1068.05 L 1156.28 1062.12 L 1150.90 1055.87 L 1145.74 1049.29 L 1140.80 1042.40 L 1136.08 1035.18 L 1131.58 1027.65 L 1127.30 1019.79 L 1123.24 1011.61 L 1119.39 1003.12 L 1115.77 994.30 Z"
       fill="url(#capGrad)"
       stroke="url(#edgeGrad)"
       stroke-width="4"
       id="path23" />
    <path
       d="M 1065 570 L 2860 570 Q 2970 570 3012 665 L 3060 780 L 1134 780 Q 1068 780 1038 716 L 984 598 Q 994 570 1065 570 Z"
       fill="#FFFFFF"
       opacity="0.13"
       id="path24" />
  </g>
  <g
     filter="url(#textGlow)"
     id="g26">
    <path
       d="M 979.77246,3025.7031 H 1094.4526 V 3335 h 94.043 v -309.2969 h 114.419 v -79.9365 H 979.77246 Z m 396.32814,315.5664 c 86.4673,0 144.9829,-56.687 144.9829,-144.1992 0,-86.9897 -58.5156,-144.1992 -144.9829,-144.1992 -86.4673,0 -145.2442,57.2095 -145.2442,144.1992 0,87.5122 58.7769,144.1992 145.2442,144.1992 z m 0,-71.5771 c -31.6089,0 -54.0747,-25.8618 -54.0747,-72.6221 0,-46.499 22.727,-72.6221 54.0747,-72.6221 31.3476,0 54.0747,26.1231 54.0747,72.6221 0,46.7603 -22.7271,72.6221 -54.0747,72.6221 z M 1529.7456,3335 h 89.8633 v -275.8594 h -89.8633 z m 44.6704,-302.7661 c 28.9966,0 49.6338,-19.0698 49.6338,-45.4541 0,-26.3843 -20.6372,-45.1929 -49.6338,-45.1929 -28.7353,0 -49.3725,18.8086 -49.3725,45.1929 0,26.3843 20.6372,45.4541 49.3725,45.4541 z m 155.2124,-86.4673 h -89.8633 V 3335 h 89.8633 z m 175.0659,395.5029 c 100.3125,0 159.8731,-46.2378 159.8731,-124.6069 0,-60.083 -37.356,-94.3042 -123.562,-111.5454 l -34.2212,-6.792 c -44.4092,-9.1431 -62.9566,-20.8984 -62.9566,-42.0581 0,-24.2944 24.8169,-41.2744 60.3443,-41.2744 37.0947,0 61.9116,19.8535 64.5239,51.9848 h 86.9897 c -2.351,-79.6753 -59.5605,-127.4804 -152.8198,-127.4804 -91.4306,0 -153.081,48.8501 -153.081,121.2109 0,56.687 38.9233,94.3042 114.9414,109.978 l 39.9682,8.0982 c 46.7603,9.6655 66.875,22.4658 66.875,44.6704 0,25.6006 -26.3842,42.3193 -66.0913,42.3193 -44.9316,0 -72.3608,-21.9433 -73.667,-59.2993 h -89.602 c 0,85.9448 58.7768,134.7949 162.4853,134.7949 z m 303.5913,0 c 78.108,0 133.4888,-48.0664 135.3174,-115.4638 h -86.9897 c -3.396,26.9067 -19.8535,44.1479 -46.499,44.1479 -33.4375,0 -53.2911,-27.6904 -53.2911,-72.8833 0,-45.1929 19.5923,-72.8833 53.2911,-72.8833 26.6455,0 43.8867,16.98 46.7602,43.3643 h 86.7285 c -3.9184,-67.6587 -58.5156,-114.6802 -135.3174,-114.6802 -85.4223,0 -142.6318,58.5156 -142.6318,144.1992 0,85.9448 57.2095,144.1992 142.6318,144.1992 z M 2351.2202,3335 h 89.8633 v -141.3257 c 0,-39.1846 22.2046,-61.6504 54.3359,-61.6504 13.0616,0 28.9966,0.5225 35.5274,0.7837 v -74.1894 c -7.3145,-0.2613 -14.8902,-0.5225 -24.5557,-0.5225 -36.8335,0 -57.4707,14.6289 -67.3974,49.6338 h -0.7837 v -48.5889 h -86.9898 z m 184.4702,0 h 89.8633 v -275.8594 h -89.8633 z m 44.6704,-302.7661 c 28.9966,0 49.6338,-19.0698 49.6338,-45.4541 0,-26.3843 -20.6372,-45.1929 -49.6338,-45.1929 -28.7353,0 -49.3725,18.8086 -49.3725,45.1929 0,26.3843 20.6372,45.4541 49.3725,45.4541 z m 65.3492,411.9604 h 89.8632 v -150.2075 h 1.045 c 14.3676,30.564 41.5356,47.0215 77.8466,47.0215 72.3609,0 119.1211,-57.2095 119.1211,-144.4604 0,-84.3775 -48.5888,-143.4156 -118.3374,-143.4156 -35.7885,0 -62.9565,14.1065 -79.414,42.0581 h -1.3062 v -36.0498 H 2645.71 Z m 143.4155,-175.0244 c -33.96,0 -57.2095,-28.4741 -57.2095,-72.622 0,-43.6255 23.2495,-71.8384 57.2095,-71.8384 33.1763,0 53.5522,26.9067 53.5522,71.8384 0,45.4541 -20.3759,72.622 -53.5522,72.622 z m 327.102,-210.0293 h -56.687 v -75.2343 h -90.1245 v 75.2343 h -47.0215 v 69.4873 h 47.0215 v 128.7867 c 0,53.5522 29.7803,77.5854 95.8716,77.5854 h 50.9399 v -69.4873 h -31.0864 c -20.1147,0 -25.6006,-5.4858 -25.6006,-23.2495 v -113.6353 h 56.687 z"
       id="text24"
       style="font-weight:800;font-size:535px;font-family:'Inter Display', Inter, Arial, sans-serif;letter-spacing:-30;text-anchor:middle;fill:url(#textGrad);stroke:#1d1276;stroke-width:20;stroke-linejoin:round;stroke-opacity:0.66;paint-order:stroke fill;filter:url(#textGlow)"
       aria-label="ToilScript" />
    <path
       d="M 979.77246,3025.7031 H 1094.4526 V 3335 h 94.043 v -309.2969 h 114.419 v -79.9365 H 979.77246 Z m 396.32814,315.5664 c 86.4673,0 144.9829,-56.687 144.9829,-144.1992 0,-86.9897 -58.5156,-144.1992 -144.9829,-144.1992 -86.4673,0 -145.2442,57.2095 -145.2442,144.1992 0,87.5122 58.7769,144.1992 145.2442,144.1992 z m 0,-71.5771 c -31.6089,0 -54.0747,-25.8618 -54.0747,-72.6221 0,-46.499 22.727,-72.6221 54.0747,-72.6221 31.3476,0 54.0747,26.1231 54.0747,72.6221 0,46.7603 -22.7271,72.6221 -54.0747,72.6221 z M 1529.7456,3335 h 89.8633 v -275.8594 h -89.8633 z m 44.6704,-302.7661 c 28.9966,0 49.6338,-19.0698 49.6338,-45.4541 0,-26.3843 -20.6372,-45.1929 -49.6338,-45.1929 -28.7353,0 -49.3725,18.8086 -49.3725,45.1929 0,26.3843 20.6372,45.4541 49.3725,45.4541 z m 155.2124,-86.4673 h -89.8633 V 3335 h 89.8633 z m 175.0659,395.5029 c 100.3125,0 159.8731,-46.2378 159.8731,-124.6069 0,-60.083 -37.356,-94.3042 -123.562,-111.5454 l -34.2212,-6.792 c -44.4092,-9.1431 -62.9566,-20.8984 -62.9566,-42.0581 0,-24.2944 24.8169,-41.2744 60.3443,-41.2744 37.0947,0 61.9116,19.8535 64.5239,51.9848 h 86.9897 c -2.351,-79.6753 -59.5605,-127.4804 -152.8198,-127.4804 -91.4306,0 -153.081,48.8501 -153.081,121.2109 0,56.687 38.9233,94.3042 114.9414,109.978 l 39.9682,8.0982 c 46.7603,9.6655 66.875,22.4658 66.875,44.6704 0,25.6006 -26.3842,42.3193 -66.0913,42.3193 -44.9316,0 -72.3608,-21.9433 -73.667,-59.2993 h -89.602 c 0,85.9448 58.7768,134.7949 162.4853,134.7949 z m 303.5913,0 c 78.108,0 133.4888,-48.0664 135.3174,-115.4638 h -86.9897 c -3.396,26.9067 -19.8535,44.1479 -46.499,44.1479 -33.4375,0 -53.2911,-27.6904 -53.2911,-72.8833 0,-45.1929 19.5923,-72.8833 53.2911,-72.8833 26.6455,0 43.8867,16.98 46.7602,43.3643 h 86.7285 c -3.9184,-67.6587 -58.5156,-114.6802 -135.3174,-114.6802 -85.4223,0 -142.6318,58.5156 -142.6318,144.1992 0,85.9448 57.2095,144.1992 142.6318,144.1992 z M 2351.2202,3335 h 89.8633 v -141.3257 c 0,-39.1846 22.2046,-61.6504 54.3359,-61.6504 13.0616,0 28.9966,0.5225 35.5274,0.7837 v -74.1894 c -7.3145,-0.2613 -14.8902,-0.5225 -24.5557,-0.5225 -36.8335,0 -57.4707,14.6289 -67.3974,49.6338 h -0.7837 v -48.5889 h -86.9898 z m 184.4702,0 h 89.8633 v -275.8594 h -89.8633 z m 44.6704,-302.7661 c 28.9966,0 49.6338,-19.0698 49.6338,-45.4541 0,-26.3843 -20.6372,-45.1929 -49.6338,-45.1929 -28.7353,0 -49.3725,18.8086 -49.3725,45.1929 0,26.3843 20.6372,45.4541 49.3725,45.4541 z m 65.3492,411.9604 h 89.8632 v -150.2075 h 1.045 c 14.3676,30.564 41.5356,47.0215 77.8466,47.0215 72.3609,0 119.1211,-57.2095 119.1211,-144.4604 0,-84.3775 -48.5888,-143.4156 -118.3374,-143.4156 -35.7885,0 -62.9565,14.1065 -79.414,42.0581 h -1.3062 v -36.0498 H 2645.71 Z m 143.4155,-175.0244 c -33.96,0 -57.2095,-28.4741 -57.2095,-72.622 0,-43.6255 23.2495,-71.8384 57.2095,-71.8384 33.1763,0 53.5522,26.9067 53.5522,71.8384 0,45.4541 -20.3759,72.622 -53.5522,72.622 z m 327.102,-210.0293 h -56.687 v -75.2343 h -90.1245 v 75.2343 h -47.0215 v 69.4873 h 47.0215 v 128.7867 c 0,53.5522 29.7803,77.5854 95.8716,77.5854 h 50.9399 v -69.4873 h -31.0864 c -20.1147,0 -25.6006,-5.4858 -25.6006,-23.2495 v -113.6353 h 56.687 z"
       id="text25"
       style="font-weight:800;font-size:535px;font-family:'Inter Display', Inter, Arial, sans-serif;letter-spacing:-30;text-anchor:middle;fill:url(#textGloss);filter:url(#textGlow)"
       aria-label="ToilScript" />
    <path
       d="M 979.77246,3025.7031 H 1094.4526 V 3335 h 94.043 v -309.2969 h 114.419 v -79.9365 H 979.77246 Z m 396.32814,315.5664 c 86.4673,0 144.9829,-56.687 144.9829,-144.1992 0,-86.9897 -58.5156,-144.1992 -144.9829,-144.1992 -86.4673,0 -145.2442,57.2095 -145.2442,144.1992 0,87.5122 58.7769,144.1992 145.2442,144.1992 z m 0,-71.5771 c -31.6089,0 -54.0747,-25.8618 -54.0747,-72.6221 0,-46.499 22.727,-72.6221 54.0747,-72.6221 31.3476,0 54.0747,26.1231 54.0747,72.6221 0,46.7603 -22.7271,72.6221 -54.0747,72.6221 z M 1529.7456,3335 h 89.8633 v -275.8594 h -89.8633 z m 44.6704,-302.7661 c 28.9966,0 49.6338,-19.0698 49.6338,-45.4541 0,-26.3843 -20.6372,-45.1929 -49.6338,-45.1929 -28.7353,0 -49.3725,18.8086 -49.3725,45.1929 0,26.3843 20.6372,45.4541 49.3725,45.4541 z m 155.2124,-86.4673 h -89.8633 V 3335 h 89.8633 z m 175.0659,395.5029 c 100.3125,0 159.8731,-46.2378 159.8731,-124.6069 0,-60.083 -37.356,-94.3042 -123.562,-111.5454 l -34.2212,-6.792 c -44.4092,-9.1431 -62.9566,-20.8984 -62.9566,-42.0581 0,-24.2944 24.8169,-41.2744 60.3443,-41.2744 37.0947,0 61.9116,19.8535 64.5239,51.9848 h 86.9897 c -2.351,-79.6753 -59.5605,-127.4804 -152.8198,-127.4804 -91.4306,0 -153.081,48.8501 -153.081,121.2109 0,56.687 38.9233,94.3042 114.9414,109.978 l 39.9682,8.0982 c 46.7603,9.6655 66.875,22.4658 66.875,44.6704 0,25.6006 -26.3842,42.3193 -66.0913,42.3193 -44.9316,0 -72.3608,-21.9433 -73.667,-59.2993 h -89.602 c 0,85.9448 58.7768,134.7949 162.4853,134.7949 z m 303.5913,0 c 78.108,0 133.4888,-48.0664 135.3174,-115.4638 h -86.9897 c -3.396,26.9067 -19.8535,44.1479 -46.499,44.1479 -33.4375,0 -53.2911,-27.6904 -53.2911,-72.8833 0,-45.1929 19.5923,-72.8833 53.2911,-72.8833 26.6455,0 43.8867,16.98 46.7602,43.3643 h 86.7285 c -3.9184,-67.6587 -58.5156,-114.6802 -135.3174,-114.6802 -85.4223,0 -142.6318,58.5156 -142.6318,144.1992 0,85.9448 57.2095,144.1992 142.6318,144.1992 z M 2351.2202,3335 h 89.8633 v -141.3257 c 0,-39.1846 22.2046,-61.6504 54.3359,-61.6504 13.0616,0 28.9966,0.5225 35.5274,0.7837 v -74.1894 c -7.3145,-0.2613 -14.8902,-0.5225 -24.5557,-0.5225 -36.8335,0 -57.4707,14.6289 -67.3974,49.6338 h -0.7837 v -48.5889 h -86.9898 z m 184.4702,0 h 89.8633 v -275.8594 h -89.8633 z m 44.6704,-302.7661 c 28.9966,0 49.6338,-19.0698 49.6338,-45.4541 0,-26.3843 -20.6372,-45.1929 -49.6338,-45.1929 -28.7353,0 -49.3725,18.8086 -49.3725,45.1929 0,26.3843 20.6372,45.4541 49.3725,45.4541 z m 65.3492,411.9604 h 89.8632 v -150.2075 h 1.045 c 14.3676,30.564 41.5356,47.0215 77.8466,47.0215 72.3609,0 119.1211,-57.2095 119.1211,-144.4604 0,-84.3775 -48.5888,-143.4156 -118.3374,-143.4156 -35.7885,0 -62.9565,14.1065 -79.414,42.0581 h -1.3062 v -36.0498 H 2645.71 Z m 143.4155,-175.0244 c -33.96,0 -57.2095,-28.4741 -57.2095,-72.622 0,-43.6255 23.2495,-71.8384 57.2095,-71.8384 33.1763,0 53.5522,26.9067 53.5522,71.8384 0,45.4541 -20.3759,72.622 -53.5522,72.622 z m 327.102,-210.0293 h -56.687 v -75.2343 h -90.1245 v 75.2343 h -47.0215 v 69.4873 h 47.0215 v 128.7867 c 0,53.5522 29.7803,77.5854 95.8716,77.5854 h 50.9399 v -69.4873 h -31.0864 c -20.1147,0 -25.6006,-5.4858 -25.6006,-23.2495 v -113.6353 h 56.687 z"
       id="text26"
       style="font-weight:800;font-size:535px;font-family:'Inter Display', Inter, Arial, sans-serif;letter-spacing:-30;text-anchor:middle;fill:none;stroke:#ffffff;stroke-width:4;stroke-opacity:0.24;filter:url(#textGlow)"
       aria-label="ToilScript" />
  </g>
</svg>
